<svg width="59" height="80" viewBox="0 0 59 80" fill="none" xmlns="http://www.w3.org/2000/svg">
<rect width="59" height="80" fill="#0F0F0F"/>
<path d="M38.0035 35.8118C37.9192 35.6899 37.8066 35.5903 37.6754 35.5215C37.5441 35.4527 37.3982 35.4167 37.25 35.4167H24.7219L23.6641 32.8775C23.5254 32.5431 23.2905 32.2575 22.9893 32.0567C22.688 31.856 22.3339 31.7492 21.9719 31.75H19.8333V33.5833H21.9719L26.3206 44.0196C26.3902 44.1866 26.5078 44.3292 26.6583 44.4295C26.8089 44.5298 26.9858 44.5834 27.1667 44.5833H34.5C34.8823 44.5833 35.2242 44.3459 35.3589 43.9893L38.1089 36.656C38.1609 36.5172 38.1785 36.3679 38.1601 36.2209C38.1417 36.0739 38.088 35.9335 38.0035 35.8118ZM33.8648 42.75H27.7781L25.4864 37.25H35.9273L33.8648 42.75Z" fill="white"/>
<path d="M27.625 48.25C28.3844 48.25 29 47.6344 29 46.875C29 46.1156 28.3844 45.5 27.625 45.5C26.8656 45.5 26.25 46.1156 26.25 46.875C26.25 47.6344 26.8656 48.25 27.625 48.25Z" fill="white"/>
<path d="M34.0417 48.25C34.801 48.25 35.4167 47.6344 35.4167 46.875C35.4167 46.1156 34.801 45.5 34.0417 45.5C33.2823 45.5 32.6667 46.1156 32.6667 46.875C32.6667 47.6344 33.2823 48.25 34.0417 48.25Z" fill="white"/>
</svg>
