<svg width="59" height="80" viewBox="0 0 59 80" fill="none" xmlns="http://www.w3.org/2000/svg">
<rect width="59" height="80" fill="#0F0F0F"/>
<path d="M38.25 46.4167L33.5255 41.6922C34.3989 40.3648 34.7488 38.7605 34.5073 37.19C34.2658 35.6194 33.4501 34.1944 32.2182 33.1907C30.9864 32.187 29.4259 31.6761 27.839 31.7568C26.252 31.8376 24.7515 32.5043 23.6279 33.6279C22.5043 34.7515 21.8376 36.2521 21.7568 37.839C21.676 39.426 22.1869 40.9864 23.1906 42.2183C24.1943 43.4502 25.6194 44.2658 27.1899 44.5073C28.7605 44.7488 30.3648 44.399 31.6922 43.5256L36.4167 48.2501L38.25 46.4167ZM23.5834 38.1667C23.5834 35.6395 25.6394 33.5834 28.1667 33.5834C30.6939 33.5834 32.75 35.6395 32.75 38.1667C32.75 40.694 30.6939 42.7501 28.1667 42.7501C25.6394 42.7501 23.5834 40.694 23.5834 38.1667Z" fill="white"/>
</svg>
